# xmcd
#
# Track frame offsets:
#	150
#	14900
#	26120
#	39423
#	55470
#	72080
#	83598
#	99278
#	117083
#	129715
#	144545
#	161263
#	181115
#	195633
#
# Disc length: 2794 seconds
#
# Revision: 2
# Processed by: cddbd v1.4PL0 Copyright (c) Steve Scherf et al.
# Submitted via: audiograbber 1.82.00
#
DISCID=b80ae80e
DTITLE=Various Artist - Hot Hits Country Vol. 7
DYEAR=1993
DGENRE=Country
TTITLE0=Carlene Carter - Every Little Thing
TTITLE1=Alan Jackson - Chattahoochie
TTITLE2=Tracy Lawrence - Can't Break It To My Heart
TTITLE3=Doug Supernaw - Reno
TTITLE4=John Michael Montgomery - Beer And Bones
TTITLE5=Tracy Byrd - Holdin Heaven
TTITLE6=Dwight Yoakam - A Thousand Miles From Nowhere
TTITLE7=Trisha Yearwood - Down On My Knees 
TTITLE8=Clay Walker - What's It To You
TTITLE9=Confederate Railroad - Trashy Women
TTITLE10=Radney Foster - Easier Said Than Done
TTITLE11=Mary Chapin Carpenter - The Hard Way
TTITLE12=Vince Gill - One More Last Chance
TTITLE13=Kenny Rogers - Old Red
EXTD=
EXTT0=
EXTT1=
EXTT2=
EXTT3=
EXTT4=
EXTT5=
EXTT6=
EXTT7=
EXTT8=
EXTT9=
EXTT10=
EXTT11=
EXTT12=
EXTT13=
PLAYORDER=
